<?xml version="1.0" encoding="UTF-8"?>
<!--Generator: Apple Native CoreSVG 232.5-->
<!DOCTYPE svg
PUBLIC "-//W3C//DTD SVG 1.1//EN"
       "http://www.w3.org/Graphics/SVG/1.1/DTD/svg11.dtd">
<svg version="1.1" xmlns="http://www.w3.org/2000/svg" xmlns:xlink="http://www.w3.org/1999/xlink" width="3300" height="2200">
 <!--glyph: "uni100765.medium", point size: 100.0, font version: "19.2d2e1", template writer version: "128"-->
 <style>.monochrome-0 {-sfsymbols-motion-group:4}
.monochrome-1 {-sfsymbols-motion-group:3}
.monochrome-2 {-sfsymbols-motion-group:2}
.monochrome-3 {-sfsymbols-motion-group:1}
.monochrome-4 {-sfsymbols-motion-group:0}

.multicolor-0:custom {fill:#DDB891;-sfsymbols-motion-group:4}
.multicolor-1:systemRedColor {-sfsymbols-motion-group:3}
.multicolor-2:systemYellowColor {-sfsymbols-motion-group:2}
.multicolor-3:systemGreenColor {-sfsymbols-motion-group:1}
.multicolor-4:systemBlueColor {-sfsymbols-motion-group:0}

.hierarchical-0:primary {-sfsymbols-motion-group:4}
.hierarchical-1:primary {-sfsymbols-motion-group:3}
.hierarchical-2:primary {-sfsymbols-motion-group:2}
.hierarchical-3:primary {-sfsymbols-motion-group:1}
.hierarchical-4:primary {-sfsymbols-motion-group:0}

.SFSymbolsPreviewWireframe {fill:none;opacity:1.0;stroke:black;stroke-width:0.5}
</style>
 <g id="Notes">
  <rect height="2200" id="artboard" style="fill:white;opacity:1" width="3300" x="0" y="0"/>
  <line style="fill:none;stroke:black;opacity:1;stroke-width:0.5;" x1="263" x2="3036" y1="292" y2="292"/>
  <text style="stroke:none;fill:black;font-family:sans-serif;font-size:13;font-weight:bold;" transform="matrix(1 0 0 1 263 322)">Weight/Scale Variations</text>
  <text style="stroke:none;fill:black;font-family:sans-serif;font-size:13;text-anchor:middle;" transform="matrix(1 0 0 1 559.711 322)">Ultralight</text>
  <text style="stroke:none;fill:black;font-family:sans-serif;font-size:13;text-anchor:middle;" transform="matrix(1 0 0 1 856.422 322)">Thin</text>
  <text style="stroke:none;fill:black;font-family:sans-serif;font-size:13;text-anchor:middle;" transform="matrix(1 0 0 1 1153.13 322)">Light</text>
  <text style="stroke:none;fill:black;font-family:sans-serif;font-size:13;text-anchor:middle;" transform="matrix(1 0 0 1 1449.84 322)">Regular</text>
  <text style="stroke:none;fill:black;font-family:sans-serif;font-size:13;text-anchor:middle;" transform="matrix(1 0 0 1 1746.56 322)">Medium</text>
  <text style="stroke:none;fill:black;font-family:sans-serif;font-size:13;text-anchor:middle;" transform="matrix(1 0 0 1 2043.27 322)">Semibold</text>
  <text style="stroke:none;fill:black;font-family:sans-serif;font-size:13;text-anchor:middle;" transform="matrix(1 0 0 1 2339.98 322)">Bold</text>
  <text style="stroke:none;fill:black;font-family:sans-serif;font-size:13;text-anchor:middle;" transform="matrix(1 0 0 1 2636.69 322)">Heavy</text>
  <text style="stroke:none;fill:black;font-family:sans-serif;font-size:13;text-anchor:middle;" transform="matrix(1 0 0 1 2933.4 322)">Black</text>
  <line style="fill:none;stroke:black;opacity:1;stroke-width:0.5;" x1="263" x2="3036" y1="1903" y2="1903"/>
  <g transform="matrix(0.2 0 0 0.2 263 1933)">
   <path d="m46.2402 4.15039c21.5332 0 39.4531-17.8711 39.4531-39.4043s-17.9688-39.4043-39.502-39.4043c-21.4844 0-39.3555 17.8711-39.3555 39.4043s17.9199 39.4043 39.4043 39.4043Zm0-7.42188c-17.7246 0-31.8848-14.209-31.8848-31.9824s14.1113-31.9824 31.8359-31.9824c17.7734 0 32.0312 14.209 32.0312 31.9824s-14.209 31.9824-31.9824 31.9824Zm-17.9688-31.9824c0 2.14844 1.51367 3.61328 3.75977 3.61328h10.498v10.5957c0 2.19727 1.46484 3.71094 3.61328 3.71094 2.24609 0 3.71094-1.51367 3.71094-3.71094v-10.5957h10.5957c2.19727 0 3.71094-1.46484 3.71094-3.61328 0-2.19727-1.51367-3.71094-3.71094-3.71094h-10.5957v-10.5469c0-2.24609-1.46484-3.75977-3.71094-3.75977-2.14844 0-3.61328 1.51367-3.61328 3.75977v10.5469h-10.498c-2.24609 0-3.75977 1.51367-3.75977 3.71094Z"/>
  </g>
  <g transform="matrix(0.2 0 0 0.2 281.506 1933)">
   <path d="m58.5449 14.5508c27.2461 0 49.8047-22.6074 49.8047-49.8047 0-27.2461-22.6074-49.8047-49.8535-49.8047-27.1973 0-49.7559 22.5586-49.7559 49.8047 0 27.1973 22.6074 49.8047 49.8047 49.8047Zm0-8.30078c-23.0469 0-41.4551-18.457-41.4551-41.5039s18.3594-41.5039 41.4062-41.5039 41.5527 18.457 41.5527 41.5039-18.457 41.5039-41.5039 41.5039Zm-22.6562-41.5039c0 2.39258 1.66016 4.00391 4.15039 4.00391h14.3555v14.4043c0 2.44141 1.66016 4.15039 4.05273 4.15039 2.44141 0 4.15039-1.66016 4.15039-4.15039v-14.4043h14.4043c2.44141 0 4.15039-1.61133 4.15039-4.00391 0-2.44141-1.70898-4.15039-4.15039-4.15039h-14.4043v-14.3555c0-2.49023-1.70898-4.19922-4.15039-4.19922-2.39258 0-4.05273 1.70898-4.05273 4.19922v14.3555h-14.3555c-2.49023 0-4.15039 1.70898-4.15039 4.15039Z"/>
  </g>
  <g transform="matrix(0.2 0 0 0.2 304.924 1933)">
   <path d="m74.8535 28.3203c34.8145 0 63.623-28.8086 63.623-63.5742 0-34.8145-28.8574-63.623-63.6719-63.623-34.7656 0-63.5254 28.8086-63.5254 63.623 0 34.7656 28.8086 63.5742 63.5742 63.5742Zm0-9.08203c-30.1758 0-54.4434-24.3164-54.4434-54.4922 0-30.2246 24.2188-54.4922 54.3945-54.4922 30.2246 0 54.541 24.2676 54.541 54.4922 0 30.1758-24.2676 54.4922-54.4922 54.4922Zm-28.8574-54.4922c0 2.58789 1.85547 4.39453 4.58984 4.39453h19.7266v19.7754c0 2.68555 1.85547 4.58984 4.44336 4.58984 2.68555 0 4.54102-1.85547 4.54102-4.58984v-19.7754h19.7754c2.68555 0 4.58984-1.80664 4.58984-4.39453 0-2.73438-1.85547-4.58984-4.58984-4.58984h-19.7754v-19.7266c0-2.73438-1.85547-4.63867-4.54102-4.63867-2.58789 0-4.44336 1.9043-4.44336 4.63867v19.7266h-19.7266c-2.73438 0-4.58984 1.85547-4.58984 4.58984Z"/>
  </g>
  <text style="stroke:none;fill:black;font-family:sans-serif;font-size:13;font-weight:bold;" transform="matrix(1 0 0 1 263 1953)">Design Variations</text>
  <text style="stroke:none;fill:black;font-family:sans-serif;font-size:13;" transform="matrix(1 0 0 1 263 1971)">Symbols are supported in up to nine weights and three scales.</text>
  <text style="stroke:none;fill:black;font-family:sans-serif;font-size:13;" transform="matrix(1 0 0 1 263 1989)">For optimal layout with text and other symbols, vertically align</text>
  <text style="stroke:none;fill:black;font-family:sans-serif;font-size:13;" transform="matrix(1 0 0 1 263 2007)">symbols with the adjacent text.</text>
  <line style="fill:none;stroke:#00AEEF;stroke-width:0.5;opacity:1.0;" x1="776" x2="776" y1="1919" y2="1933"/>
  <g transform="matrix(0.2 0 0 0.2 776 1933)">
   <path d="m16.5527 0.78125c2.58789 0 3.85742-0.976562 4.78516-3.71094l6.29883-17.2363h28.8086l6.29883 17.2363c0.927734 2.73438 2.19727 3.71094 4.73633 3.71094 2.58789 0 4.24805-1.5625 4.24805-4.00391 0-0.830078-0.146484-1.61133-0.537109-2.63672l-22.9004-60.9863c-1.12305-2.97852-3.125-4.49219-6.25-4.49219-3.02734 0-5.07812 1.46484-6.15234 4.44336l-22.9004 61.084c-0.390625 1.02539-0.537109 1.80664-0.537109 2.63672 0 2.44141 1.5625 3.95508 4.10156 3.95508Zm13.4766-28.3691 11.8652-32.8613h0.244141l11.8652 32.8613Z"/>
  </g>
  <line style="fill:none;stroke:#00AEEF;stroke-width:0.5;opacity:1.0;" x1="792.836" x2="792.836" y1="1919" y2="1933"/>
  <text style="stroke:none;fill:black;font-family:sans-serif;font-size:13;font-weight:bold;" transform="matrix(1 0 0 1 776 1953)">Margins</text>
  <text style="stroke:none;fill:black;font-family:sans-serif;font-size:13;" transform="matrix(1 0 0 1 776 1971)">Leading and trailing margins on the left and right side of each symbol</text>
  <text style="stroke:none;fill:black;font-family:sans-serif;font-size:13;" transform="matrix(1 0 0 1 776 1989)">can be adjusted by modifying the x-location of the margin guidelines.</text>
  <text style="stroke:none;fill:black;font-family:sans-serif;font-size:13;" transform="matrix(1 0 0 1 776 2007)">Modifications are automatically applied proportionally to all</text>
  <text style="stroke:none;fill:black;font-family:sans-serif;font-size:13;" transform="matrix(1 0 0 1 776 2025)">scales and weights.</text>
  <g transform="matrix(0.2 0 0 0.2 1289 1933)">
   <path d="m14.209 9.32617 8.49609 8.54492c4.29688 4.3457 9.22852 4.05273 13.8672-1.07422l53.4668-58.9355-4.83398-4.88281-53.0762 58.3984c-1.75781 2.00195-3.41797 2.49023-5.76172 0.146484l-5.85938-5.81055c-2.34375-2.29492-1.80664-4.00391 0.195312-5.81055l57.373-54.0039-4.88281-4.83398-57.959 54.4434c-4.93164 4.58984-5.32227 9.47266-1.02539 13.8184Zm32.0801-90.9668c-2.09961 2.05078-2.24609 4.93164-1.07422 6.88477 1.17188 1.80664 3.4668 2.97852 6.68945 2.14844 7.32422-1.70898 14.9414-2.00195 22.0703 2.68555l-2.92969 7.27539c-1.70898 4.15039-0.830078 7.08008 1.85547 9.81445l11.4746 11.5723c2.44141 2.44141 4.49219 2.53906 7.32422 2.05078l5.32227-0.976562 3.32031 3.36914-0.195312 2.7832c-0.195312 2.49023 0.439453 4.39453 2.88086 6.78711l3.80859 3.71094c2.39258 2.39258 5.46875 2.53906 7.8125 0.195312l14.5508-14.5996c2.34375-2.34375 2.24609-5.32227-0.146484-7.71484l-3.85742-3.80859c-2.39258-2.39258-4.24805-3.17383-6.64062-2.97852l-2.88086 0.244141-3.22266-3.17383 1.2207-5.61523c0.634766-2.83203-0.146484-5.0293-3.07617-7.95898l-10.9863-10.9375c-16.6992-16.6016-38.8672-16.2109-53.3203-1.75781Zm7.4707 1.85547c12.1582-8.88672 28.6133-7.37305 39.7461 3.75977l12.1582 12.0605c1.17188 1.17188 1.36719 2.09961 1.02539 3.80859l-1.61133 7.42188 7.51953 7.42188 4.93164-0.292969c1.26953-0.0488281 1.66016 0.0488281 2.63672 1.02539l2.88086 2.88086-12.207 12.207-2.88086-2.88086c-0.976562-0.976562-1.12305-1.36719-1.07422-2.68555l0.341797-4.88281-7.4707-7.42188-7.61719 1.26953c-1.61133 0.341797-2.34375 0.195312-3.56445-0.976562l-10.0098-10.0098c-1.26953-1.17188-1.41602-2.00195-0.634766-3.85742l4.39453-10.4492c-7.8125-7.27539-17.9688-10.4004-28.125-7.42188-0.78125 0.195312-1.07422-0.439453-0.439453-0.976562Z"/>
  </g>
  <text style="stroke:none;fill:black;font-family:sans-serif;font-size:13;font-weight:bold;" transform="matrix(1 0 0 1 1289 1953)">Exporting</text>
  <text style="stroke:none;fill:black;font-family:sans-serif;font-size:13;" transform="matrix(1 0 0 1 1289 1971)">Symbols should be outlined when exporting to ensure the</text>
  <text style="stroke:none;fill:black;font-family:sans-serif;font-size:13;" transform="matrix(1 0 0 1 1289 1989)">design is preserved when submitting to Xcode.</text>
  <text id="template-version" style="stroke:none;fill:black;font-family:sans-serif;font-size:13;text-anchor:end;" transform="matrix(1 0 0 1 3036 1933)">Template v.5.0</text>
  <text style="stroke:none;fill:black;font-family:sans-serif;font-size:13;text-anchor:end;" transform="matrix(1 0 0 1 3036 1951)">Requires Xcode 15 or greater</text>
  <text id="descriptive-name" style="stroke:none;fill:black;font-family:sans-serif;font-size:13;text-anchor:end;" transform="matrix(1 0 0 1 3036 1969)">Generated from paintpalette</text>
  <text style="stroke:none;fill:black;font-family:sans-serif;font-size:13;text-anchor:end;" transform="matrix(1 0 0 1 3036 1987)">Typeset at 100.0 points</text>
  <text style="stroke:none;fill:black;font-family:sans-serif;font-size:13;" transform="matrix(1 0 0 1 263 726)">Small</text>
  <text style="stroke:none;fill:black;font-family:sans-serif;font-size:13;" transform="matrix(1 0 0 1 263 1156)">Medium</text>
  <text style="stroke:none;fill:black;font-family:sans-serif;font-size:13;" transform="matrix(1 0 0 1 263 1586)">Large</text>
 </g>
 <g id="Guides">
  <g id="H-reference" style="fill:#27AAE1;stroke:none;" transform="matrix(1 0 0 1 339 696)">
   <path d="M0.993654 0L3.63775 0L29.3281-67.1323L30.0303-67.1323L30.0303-70.459L28.1226-70.459ZM11.6885-24.4799L46.9815-24.4799L46.2315-26.7285L12.4385-26.7285ZM55.1196 0L57.7637 0L30.6382-70.459L29.4326-70.459L29.4326-67.1323Z"/>
  </g>
  <line id="Baseline-S" style="fill:none;stroke:#27AAE1;opacity:1;stroke-width:0.5;" x1="263" x2="3036" y1="696" y2="696"/>
  <line id="Capline-S" style="fill:none;stroke:#27AAE1;opacity:1;stroke-width:0.5;" x1="263" x2="3036" y1="625.541" y2="625.541"/>
  <g id="H-reference" style="fill:#27AAE1;stroke:none;" transform="matrix(1 0 0 1 339 1126)">
   <path d="M0.993654 0L3.63775 0L29.3281-67.1323L30.0303-67.1323L30.0303-70.459L28.1226-70.459ZM11.6885-24.4799L46.9815-24.4799L46.2315-26.7285L12.4385-26.7285ZM55.1196 0L57.7637 0L30.6382-70.459L29.4326-70.459L29.4326-67.1323Z"/>
  </g>
  <line id="Baseline-M" style="fill:none;stroke:#27AAE1;opacity:1;stroke-width:0.5;" x1="263" x2="3036" y1="1126" y2="1126"/>
  <line id="Capline-M" style="fill:none;stroke:#27AAE1;opacity:1;stroke-width:0.5;" x1="263" x2="3036" y1="1055.54" y2="1055.54"/>
  <g id="H-reference" style="fill:#27AAE1;stroke:none;" transform="matrix(1 0 0 1 339 1556)">
   <path d="M0.993654 0L3.63775 0L29.3281-67.1323L30.0303-67.1323L30.0303-70.459L28.1226-70.459ZM11.6885-24.4799L46.9815-24.4799L46.2315-26.7285L12.4385-26.7285ZM55.1196 0L57.7637 0L30.6382-70.459L29.4326-70.459L29.4326-67.1323Z"/>
  </g>
  <line id="Baseline-L" style="fill:none;stroke:#27AAE1;opacity:1;stroke-width:0.5;" x1="263" x2="3036" y1="1556" y2="1556"/>
  <line id="Capline-L" style="fill:none;stroke:#27AAE1;opacity:1;stroke-width:0.5;" x1="263" x2="3036" y1="1485.54" y2="1485.54"/>
  <line id="left-margin-Ultralight-S" style="fill:none;stroke:#00AEEF;stroke-width:0.5;opacity:1.0;" x1="508.974" x2="508.974" y1="600.785" y2="720.121"/>
  <line id="right-margin-Ultralight-S" style="fill:none;stroke:#00AEEF;stroke-width:0.5;opacity:1.0;" x1="610.448" x2="610.448" y1="600.785" y2="720.121"/>
  <line id="left-margin-Regular-S" style="fill:none;stroke:#00AEEF;stroke-width:0.5;opacity:1.0;" x1="1396.45" x2="1396.45" y1="600.785" y2="720.121"/>
  <line id="right-margin-Regular-S" style="fill:none;stroke:#00AEEF;stroke-width:0.5;opacity:1.0;" x1="1503.24" x2="1503.24" y1="600.785" y2="720.121"/>
  <line id="left-margin-Black-S" style="fill:none;stroke:#00AEEF;stroke-width:0.5;opacity:1.0;" x1="2872.73" x2="2872.73" y1="600.785" y2="720.121"/>
  <line id="right-margin-Black-S" style="fill:none;stroke:#00AEEF;stroke-width:0.5;opacity:1.0;" x1="2994.07" x2="2994.07" y1="600.785" y2="720.121"/>
 </g>
 <g id="Symbols">
  <g id="Black-S" transform="matrix(1 0 0 1 2872.73 696)">
   <path class="monochrome-0 multicolor-0:custom hierarchical-0:primary SFSymbolsPreviewWireframe" d="M63.5742 9.81445C84.4238 9.81445 98.3398 2.19727 98.3398-9.22852C98.3398-18.3594 92.2363-19.6777 92.2363-24.6094C92.2363-31.2988 114.502-31.3965 114.502-49.7559C114.502-68.2617 95.3125-80.5664 66.5039-80.5664C30.7129-80.5664 6.83594-61.3281 6.83594-34.9121C6.83594-8.05664 29.541 9.81445 63.5742 9.81445ZM63.5742-5.56641C38.7695-5.56641 22.2168-17.2852 22.2168-34.9121C22.2168-53.0762 39.9414-65.1855 66.5039-65.1855C86.084-65.1855 99.1211-59.0332 99.1211-49.7559C99.1211-38.6719 76.9043-38.1348 76.9043-26.5625C76.9043-19.4824 82.5684-18.8477 82.5684-13.1836C82.5684-8.59375 74.9512-5.56641 63.5742-5.56641ZM59.6191-13.0859C66.748-13.0859 71.4844-17.8223 71.4844-24.9023C71.4844-31.3965 66.2109-36.7188 59.6191-36.7188C53.125-36.7188 47.8516-31.3965 47.8516-24.9023C47.8516-18.3594 53.125-13.0859 59.6191-13.0859ZM59.6191-20.8496C57.373-20.8496 55.5664-22.6562 55.5664-24.9512C55.5664-27.5879 57.5195-28.9062 59.5215-28.9551C61.6211-29.0039 63.7207-27.6855 63.7207-24.9512C63.7207-22.6562 61.9629-20.8496 59.6191-20.8496Z"/>
   <path class="monochrome-1 multicolor-1:systemRedColor hierarchical-1:primary SFSymbolsPreviewWireframe" d="M35.3027-30.2734C38.6719-30.2734 41.4062-33.1055 41.4062-36.4746C41.4062-39.8438 38.6719-42.5781 35.3027-42.5781C31.9336-42.5781 29.1504-39.8438 29.1504-36.4746C29.1504-33.1055 31.9336-30.2734 35.3027-30.2734Z"/>
   <path class="monochrome-2 multicolor-2:systemYellowColor hierarchical-2:primary SFSymbolsPreviewWireframe" d="M47.998-41.6504C52.0508-41.6504 55.4199-44.9219 55.4199-49.0723C55.4199-53.1738 52.0508-56.3965 47.998-56.3965C43.8965-56.3965 40.5762-53.1738 40.5762-49.0723C40.5762-44.9219 43.8965-41.6504 47.998-41.6504Z"/>
   <path class="monochrome-3 multicolor-3:systemGreenColor hierarchical-3:primary SFSymbolsPreviewWireframe" d="M65.7227-47.168C69.0918-47.168 71.8262-49.9023 71.8262-53.2715C71.8262-56.6895 69.0918-59.375 65.7227-59.375C62.3535-59.375 59.5703-56.6895 59.5703-53.2715C59.5703-49.9023 62.3535-47.168 65.7227-47.168Z"/>
   <path class="monochrome-4 multicolor-4:systemBlueColor hierarchical-4:primary SFSymbolsPreviewWireframe" d="M81.5918-44.9219C84.375-44.9219 86.6211-47.1191 86.6211-49.9512C86.6211-52.7344 84.375-54.9805 81.5918-54.9805C78.8086-54.9805 76.5625-52.7344 76.5625-49.9512C76.5625-47.1191 78.8086-44.9219 81.5918-44.9219Z"/>
  </g>
  <g id="Regular-S" transform="matrix(1 0 0 1 1396.45 696)">
   <path class="monochrome-0 multicolor-0:custom hierarchical-0:primary SFSymbolsPreviewWireframe" d="M56.8359 3.17383C73.2422 3.17383 84.1797-2.68555 84.1797-11.4258C84.1797-18.9941 77.7344-20.9473 77.7344-25.1465C77.7344-30.6641 99.9512-32.4707 99.9512-48.1445C99.9512-63.9648 83.6914-74.4141 59.668-74.4141C28.1738-74.4141 6.83594-58.5938 6.83594-34.9609C6.83594-12.1582 27.0996 3.17383 56.8359 3.17383ZM56.8359-4.3457C31.1523-4.3457 14.3555-16.6016 14.3555-34.9609C14.3555-54.1504 32.2266-66.8945 59.668-66.8945C79.4922-66.8945 92.4316-59.2773 92.4316-48.1445C92.4316-35.0586 70.0684-36.8164 70.0684-25.0977C70.0684-18.5059 76.6602-16.2598 76.6602-11.9141C76.6602-7.37305 68.75-4.3457 56.8359-4.3457ZM53.6621-13.0859C59.375-13.0859 64.0137-17.7734 64.0137-23.4863C64.0137-29.1504 59.375-33.8379 53.6621-33.8379C47.998-33.8379 43.3105-29.1504 43.3105-23.4863C43.3105-17.7734 47.998-13.0859 53.6621-13.0859ZM53.6621-18.0664C50.6836-18.0664 48.291-20.459 48.291-23.4863C48.291-26.9043 50.8789-28.7598 53.5645-28.8086C56.3477-28.8574 59.082-27.0508 59.082-23.4863C59.082-20.459 56.6895-18.0664 53.6621-18.0664Z"/>
   <path class="monochrome-1 multicolor-1:systemRedColor hierarchical-1:primary SFSymbolsPreviewWireframe" d="M26.6602-29.4434C30.3223-29.4434 33.252-32.4707 33.252-36.1328C33.252-39.7949 30.3223-42.7246 26.6602-42.7246C22.998-42.7246 20.0195-39.7949 20.0195-36.1328C20.0195-32.4707 22.998-29.4434 26.6602-29.4434Z"/>
   <path class="monochrome-2 multicolor-2:systemYellowColor hierarchical-2:primary SFSymbolsPreviewWireframe" d="M40.625-41.8945C45.0684-41.8945 48.6816-45.4102 48.6816-50C48.6816-54.4922 45.0684-58.0078 40.625-58.0078C36.084-58.0078 32.4219-54.4922 32.4219-50C32.4219-45.4102 36.084-41.8945 40.625-41.8945Z"/>
   <path class="monochrome-3 multicolor-3:systemGreenColor hierarchical-3:primary SFSymbolsPreviewWireframe" d="M60.0098-47.9492C63.6719-47.9492 66.6504-50.9277 66.6504-54.5898C66.6504-58.252 63.6719-61.2305 60.0098-61.2305C56.3477-61.2305 53.3203-58.252 53.3203-54.5898C53.3203-50.9277 56.3477-47.9492 60.0098-47.9492Z"/>
   <path class="monochrome-4 multicolor-4:systemBlueColor hierarchical-4:primary SFSymbolsPreviewWireframe" d="M77.4902-45.459C80.4688-45.459 82.8613-47.9004 82.8613-50.9277C82.8613-53.9062 80.4688-56.3965 77.4902-56.3965C74.4629-56.3965 71.9727-53.9062 71.9727-50.9277C71.9727-47.9004 74.4629-45.459 77.4902-45.459Z"/>
  </g>
  <g id="Ultralight-S" transform="matrix(1 0 0 1 508.974 696)">
   <path class="monochrome-0 multicolor-0:custom hierarchical-0:primary SFSymbolsPreviewWireframe" d="M54.2022 0.54006C68.8828 0.54006 78.8667-4.36571 78.8667-11.4258C78.8667-18.5855 72.2852-19.2217 72.2852-24.874C72.2852-33.5249 94.6382-32.1982 94.6382-48.1445C94.6382-62.3301 79.6499-71.7803 57.0342-71.7803C26.9024-71.7803 6.83594-57.0044 6.83594-34.9609C6.83594-13.7475 25.8281 0.54006 54.2022 0.54006ZM54.2022-1.71193C27.1109-1.71193 9.04252-15.0122 9.04252-34.9609C9.04252-55.7397 28.1851-69.5283 57.0342-69.5283C78.2661-69.5283 92.4316-61.0029 92.4316-48.1445C92.4316-33.4693 70.0684-35.6812 70.0684-24.689C70.0684-18.4604 76.6602-17.168 76.6602-11.9141C76.6602-5.55665 68.1143-1.71193 54.2022-1.71193ZM51.0738-11.7691C57.5132-11.7691 62.7422-17.0469 62.7422-23.4863C62.7422-29.9224 57.5132-35.2002 51.0738-35.2002C44.5923-35.2002 39.3599-29.9224 39.3599-23.4863C39.3599-17.0469 44.5923-11.7691 51.0738-11.7691ZM51.0738-13.8433C45.7339-13.8433 41.4341-18.1431 41.4341-23.4863C41.4341-28.8569 45.7476-33.1191 51.0669-33.1225C56.3931-33.1259 60.7168-28.8672 60.7168-23.4863C60.7168-18.1431 56.417-13.8433 51.0738-13.8433Z"/>
   <path class="monochrome-1 multicolor-1:systemRedColor hierarchical-1:primary SFSymbolsPreviewWireframe" d="M24.0264-30.9419C26.7803-30.9419 29.1197-33.2881 29.1197-36.1328C29.1197-39.023 26.8711-41.2261 24.0264-41.2261C21.1817-41.2261 18.8389-38.9775 18.8389-36.1328C18.8389-33.2881 21.2271-30.9419 24.0264-30.9419Z"/>
   <path class="monochrome-2 multicolor-2:systemYellowColor hierarchical-2:primary SFSymbolsPreviewWireframe" d="M37.9912-42.3486C42.253-42.3486 45.6392-45.728 45.6392-50C45.6392-54.1743 42.2075-57.5537 37.9912-57.5537C33.6773-57.5537 30.2422-54.2197 30.2422-50C30.2422-45.728 33.6773-42.3486 37.9912-42.3486Z"/>
   <path class="monochrome-3 multicolor-3:systemGreenColor hierarchical-3:primary SFSymbolsPreviewWireframe" d="M57.376-49.0391C60.4932-49.0391 62.9268-51.4727 62.9268-54.5898C62.9268-57.707 60.4932-60.1406 57.376-60.1406C54.2588-60.1406 51.731-57.6616 51.731-54.5898C51.731-51.5181 54.2588-49.0391 57.376-49.0391Z"/>
   <path class="monochrome-4 multicolor-4:systemBlueColor hierarchical-4:primary SFSymbolsPreviewWireframe" d="M74.9019-46.7305C77.1538-46.7305 79.0015-48.5361 79.0015-50.9277C79.0015-53.2705 77.1084-55.125 74.9019-55.125C72.5103-55.125 70.565-53.2705 70.565-50.9277C70.565-48.5815 72.4649-46.7305 74.9019-46.7305Z"/>
  </g>
 </g>
</svg>
